<?xml version="1.0" encoding="UTF-8"?>
<!DOCTYPE svg PUBLIC "-//W3C//DTD SVG 1.1//EN" "http://www.w3.org/Graphics/SVG/1.1/DTD/svg11.dtd">
<!-- Creator: CorelDRAW -->
<svg xmlns="http://www.w3.org/2000/svg" xml:space="preserve" width="116.583mm" height="116.583mm" version="1.1" style="shape-rendering:geometricPrecision; text-rendering:geometricPrecision; image-rendering:optimizeQuality; fill-rule:evenodd; clip-rule:evenodd"
viewBox="0 0 1269.13 1269.13"
 xmlns:xlink="http://www.w3.org/1999/xlink"
 xmlns:xodm="http://www.corel.com/coreldraw/odm/2003">
 <defs>
  <style type="text/css">
   <![CDATA[
    .fil0 {fill:#9754FF}
    .fil1 {fill:white}
   ]]>
  </style>
 </defs>
 <g id="Layer_x0020_1">
  <metadata id="CorelCorpID_0Corel-Layer"/>
  <g id="_105553238090016">
   <rect class="fil0" x="-0" y="-0" width="1269.13" height="1269.13" rx="208.83" ry="208.83"/>
   <g>
    <path class="fil1" d="M229.03 322.75l205.38 0c10.98,0 19.96,8.98 19.96,19.96l0 217.21c-86.4,22.91 -167.22,59.45 -245.3,106.3l0 -323.51c0,-10.98 8.98,-19.96 19.96,-19.96z"/>
    <path class="fil1" d="M529.84 322.75l205.38 0c10.98,0 19.96,8.98 19.96,19.96l0 194.39c-21.9,-1.94 -43.86,-3.36 -65.91,-3.99 -62.84,-1.77 -122.39,3.24 -179.39,14.14l0 -204.54c0,-10.98 8.98,-19.96 19.96,-19.96zm225.34 379.92l0 223.75c0,10.98 -8.98,19.96 -19.96,19.96l-205.38 0c-10.98,0 -19.96,-8.98 -19.96,-19.96l0 -214.81c78.43,-16.01 150.47,-19.41 230.23,-10.68 5.03,0.55 10.06,1.14 15.07,1.75z"/>
    <path class="fil1" d="M830.65 322.75l205.38 0c10.98,0 19.96,8.98 19.96,19.96l0 225.28c-82.09,-1.82 -163.41,-15.3 -245.3,-25.04l0 -200.23c0,-10.98 8.98,-19.96 19.96,-19.96zm225.34 388.79l0 214.88c0,10.98 -8.98,19.96 -19.96,19.96l-205.38 0c-10.98,0 -19.96,-8.98 -19.96,-19.96l0 -216.17c42.67,6.09 85.19,11.99 128.95,12.52 40.21,0.48 78.72,-3.5 116.34,-11.22z"/>
    <path class="fil1" d="M1108.66 617.56c-304.29,43.66 -515.57,-169.78 -959.72,180.44 -0.28,0.22 2.39,1.31 6.35,-0.7 604,-306.92 615.77,-26.82 954.01,-174.47 8.54,-3.73 19.88,-8.21 -0.64,-5.27z"/>
   </g>
  </g>
 </g>
</svg>
