<?xml version="1.0" encoding="UTF-8"?>
<svg id="Layer_2" data-name="Layer 2" xmlns="http://www.w3.org/2000/svg" viewBox="0 0 252.92 162.39">
  <defs>
    <style>
      .cls-1 {
        fill: #fff;
        fill-rule: evenodd;
      }
    </style>
  </defs>
  <g id="Layer_1-2" data-name="Layer 1">
    <g>
      <path class="cls-1" d="M20.86,0h53.48c2.86,0,5.2,2.34,5.2,5.2v56.56c-22.5,5.97-43.54,15.48-63.87,27.68V5.2C15.66,2.34,18,0,20.86,0Z"/>
      <path class="cls-1" d="M99.19,0h53.48c2.86,0,5.2,2.34,5.2,5.2v50.62c-5.7-.51-11.42-.87-17.16-1.04-16.36-.46-31.87.84-46.71,3.68V5.2C93.99,2.34,96.33,0,99.19,0ZM157.87,98.93v58.26c0,2.86-2.34,5.2-5.2,5.2h-53.48c-2.86,0-5.2-2.34-5.2-5.2v-55.93c20.42-4.17,39.18-5.05,59.95-2.78,1.31.14,2.62.3,3.92.46h0Z"/>
      <path class="cls-1" d="M177.52,0h53.48c2.86,0,5.2,2.34,5.2,5.2v58.66c-21.38-.47-42.55-3.98-63.87-6.52V5.2C172.32,2.34,174.66,0,177.52,0h0ZM236.19,101.24v55.95c0,2.86-2.34,5.2-5.2,5.2h-53.48c-2.86,0-5.2-2.34-5.2-5.2v-56.29c11.11,1.59,22.18,3.12,33.58,3.26,10.47.12,20.5-.91,30.29-2.92h0Z"/>
      <path class="cls-1" d="M249.91,76.77C170.67,88.13,115.66,32.56,0,123.75c-.07.06.62.34,1.65-.18,157.28-79.92,160.34-6.98,248.42-45.43,2.22-.97,5.18-2.14-.17-1.37h0Z"/>
    </g>
  </g>
</svg>